<svg width="135" height="147" viewBox="0 0 135 147" fill="none" xmlns="http://www.w3.org/2000/svg">
<path d="M8.97631 0H7.78632C7.03632 0 6.27631 0.149995 5.54631 0.259995L4.65631 0.389999C3.75631 0.509999 2.85632 0.670003 2.17632 0.800003L1.34631 0.940002C0.764488 1.02098 0.187092 1.13112 -0.383688 1.27C-0.743689 1.37 -1.11369 1.49 -1.49369 1.63C-1.93708 1.7924 -2.37108 1.97935 -2.79368 2.19C-3.1502 2.41507 -3.48498 2.67283 -3.79368 2.95999L-3.89368 3.05L-3.99369 3.14C-4.37543 3.48961 -4.71143 3.88608 -4.99369 4.31999C-5.1405 4.53831 -5.26767 4.76921 -5.37369 5.00999L-5.62369 5.23C-6.24302 5.85408 -6.6007 6.69106 -6.62369 7.56999C-6.75369 9.23999 -6.90369 11.46 -6.98369 13.72C-6.98369 14.39 -6.98369 15.07 -6.98369 15.72C-6.98369 15.98 -6.98369 16.23 -6.98369 16.48C-6.98369 17.57 -6.98369 18.66 -6.98369 19.75C-6.98369 21.16 -6.98369 22.59 -6.98369 23.98C-6.98369 26.39 -7.05369 28.87 -6.90369 31.31C-6.82758 32.5143 -6.68066 33.713 -6.46368 34.9C-6.28971 35.8387 -5.95116 36.7392 -5.46368 37.56C-4.56406 38.9507 -3.24813 40.0216 -1.70369 40.62C-0.951511 40.9559 -0.172008 41.2269 0.626314 41.43C1.28631 41.59 1.96631 41.69 2.62631 41.79C3.56631 41.92 4.51631 42.02 5.32631 42.1C6.13631 42.18 7.05631 42.25 8.01631 42.3C8.97631 42.35 9.67632 42.37 10.3963 42.37C11.5397 42.3767 12.6823 42.3065 13.8163 42.16L14.2663 42.11C14.8374 42.0459 15.4048 41.9525 15.9663 41.83C16.4665 41.7152 16.9604 41.5751 17.4463 41.41C18.5131 41.0531 19.5497 40.6117 20.5463 40.09C20.9123 39.8947 21.2663 39.6777 21.6063 39.44C22.1876 39.0722 22.7304 38.6467 23.2263 38.17C24.0402 37.3852 24.7163 36.4691 25.2263 35.46C25.8614 34.1946 26.3222 32.849 26.5963 31.46C26.8344 30.2333 27.0079 28.9949 27.1163 27.75C27.2863 26.05 27.3163 24.31 27.3563 22.62V22.09C27.3563 20.01 27.4163 18.09 27.4163 16.2C27.4218 14.0924 27.2006 11.9903 26.7563 9.92999C26.5024 8.80968 26.1199 7.72248 25.6163 6.69C25.1988 5.83855 24.6138 5.08008 23.8963 4.45999C23.2876 3.9351 22.6158 3.48832 21.8963 3.13C20.8687 2.66528 19.8134 2.26451 18.7363 1.92999L18.2563 1.77C17.6463 1.57 17.0063 1.35999 16.3763 1.17999C14.4171 0.610223 12.408 0.228498 10.3763 0.0399933C10.0063 0.0199933 9.48631 0 8.97631 0Z" fill="#03A9F4"/>
<path d="M65.7464 25.2299C66.3331 25.2299 66.9231 25.2299 67.5164 25.2299C68.9492 25.3012 70.3738 25.4885 71.7764 25.7899C72.3699 25.9143 72.952 26.0882 73.5164 26.3099C74.2705 26.5711 74.9867 26.9308 75.6464 27.3799C76.3875 27.8575 76.9582 28.5576 77.2764 29.3799C77.4774 29.8107 77.6478 30.2551 77.7864 30.7099C77.9691 31.2984 78.1062 31.9002 78.1964 32.5099C78.5915 35.3148 78.712 38.1515 78.5564 40.9799C78.5564 42.3099 78.4964 43.6499 78.4364 44.9799C78.4014 46.4655 78.2812 47.948 78.0764 49.4199C78.0219 49.9528 77.9009 50.4769 77.7164 50.9799C77.5625 51.4104 77.3752 51.8284 77.1564 52.2299C76.9365 52.613 76.6857 52.9776 76.4064 53.3199C76.164 53.6407 75.8855 53.9326 75.5764 54.1899C75.2622 54.4346 74.9276 54.652 74.5764 54.8399C74.3251 54.9749 74.0644 55.0919 73.7964 55.1899C73.5002 55.3158 73.1962 55.4227 72.8864 55.5099C72.5844 55.5966 72.2771 55.6634 71.9664 55.7099C71.4964 55.7699 71.0364 55.8499 70.5664 55.8799C69.2264 55.9699 67.8864 55.9899 66.5664 55.9499L64.4664 55.8599L63.4664 55.7699C63.0031 55.7284 62.5424 55.6617 62.0864 55.5699C61.6901 55.5067 61.3014 55.4028 60.9264 55.2599C60.4241 55.0745 59.9444 54.833 59.4964 54.5399C59.0189 54.2141 58.6082 53.8 58.2864 53.3199C57.9907 52.845 57.7492 52.3385 57.5664 51.8099C57.3094 51.0397 57.1515 50.2399 57.0964 49.4299C56.9631 48.1946 56.9096 46.952 56.9364 45.7099C56.9364 42.9599 57.0464 40.1999 57.0864 37.4499C57.0864 36.1165 57.0864 34.7832 57.0864 33.4499V32.9199C57.0282 32.3752 57.0048 31.8275 57.0164 31.2799C57.0164 31.1599 57.0164 31.0399 57.0164 30.9199C57.0164 30.4099 57.0164 29.9199 56.9464 29.3999C56.9353 29.1147 56.9889 28.8307 57.1032 28.5691C57.2175 28.3076 57.3895 28.0754 57.6064 27.8899C57.6898 27.7254 57.7868 27.5682 57.8964 27.4199C58.2764 26.8687 58.7888 26.4217 59.3864 26.1199C59.7564 25.9325 60.141 25.7753 60.5364 25.6499C60.8228 25.5735 61.1132 25.5135 61.4064 25.4699C62.1702 25.3416 62.9421 25.2681 63.7164 25.2499L65.7464 25.2299ZM62.1764 28.9799C61.9462 29.0212 61.719 29.078 61.4964 29.1499L61.2764 29.2799L61.2064 29.3499V29.3999C61.2864 30.6699 61.3564 31.9399 61.3864 33.2199C61.4664 35.8865 61.5331 38.5732 61.5864 41.2799C61.5864 43.8499 61.5864 46.4099 61.9364 48.9599C62.0198 49.5469 62.1537 50.1257 62.3364 50.6899V50.7599L62.5364 50.8699C63.0069 51.025 63.4882 51.1453 63.9764 51.2299C65.1964 51.3699 66.4264 51.4599 67.6564 51.5299C68.9116 51.6149 70.1712 51.6149 71.4264 51.5299C71.8614 51.4554 72.2896 51.345 72.7064 51.1999L73.0164 51.0199C73.1472 50.8972 73.2708 50.767 73.3864 50.6299C73.5353 50.4023 73.6689 50.1651 73.7864 49.9199C73.8861 49.6425 73.9663 49.3584 74.0264 49.0699C74.2362 46.5891 74.3163 44.099 74.2664 41.6099C74.325 38.9843 74.2482 36.3575 74.0364 33.7399C73.9142 32.8249 73.7032 31.924 73.4064 31.0499L73.3064 30.8799L73.1464 30.7099C72.8256 30.5076 72.4915 30.3272 72.1464 30.1699C71.9064 30.0799 71.6764 29.9899 71.4264 29.9199C71.1764 29.8499 70.6664 29.7099 70.2864 29.6199C69.5683 29.4362 68.8405 29.2927 68.1064 29.1899C67.1064 29.0699 66.1764 28.9699 65.2064 28.9099L63.4864 28.9199C63.0489 28.9114 62.6113 28.9315 62.1764 28.9799Z" fill="#03A9F4"/>
<path d="M95.2364 92.9199C96.5264 92.9199 97.8264 92.9199 99.1164 93.0099C99.7664 93.0099 100.406 93.0999 101.056 93.0999C101.706 93.0999 102.256 93.0999 102.856 93.0999C104.29 93.1374 105.716 93.3115 107.116 93.6199C108.356 93.8999 109.606 94.1399 110.846 94.4399C112.413 94.687 113.911 95.2556 115.246 96.1099C115.689 96.4197 116.098 96.775 116.466 97.1699C116.867 97.5886 117.204 98.0637 117.466 98.5799C117.827 99.3008 118.118 100.054 118.336 100.83C118.676 102.04 118.976 103.26 119.286 104.48C119.936 106.98 120.346 109.48 120.746 112.08C120.956 113.39 121.176 114.7 121.356 116.02C121.576 117.59 121.716 119.17 121.806 120.76C121.946 123.38 122.066 126 121.986 128.62C121.986 130.08 121.876 131.54 121.796 133C121.707 134.548 121.536 136.09 121.286 137.62C121.139 138.504 120.877 139.364 120.506 140.18C120.207 140.8 119.827 141.379 119.376 141.9C118.863 142.501 118.255 143.014 117.576 143.42C116.989 143.77 116.378 144.078 115.746 144.34H115.676L115.346 144.48L115.206 144.54C114.596 144.79 113.976 145.04 113.346 145.26C112.716 145.48 112.096 145.66 111.466 145.84L110.286 146.17C109.47 146.368 108.642 146.512 107.806 146.6C107.186 146.68 106.546 146.74 105.916 146.79C103.157 146.982 100.39 147.028 97.6264 146.93C94.7416 146.885 91.8654 146.604 89.0264 146.09C87.7488 145.852 86.4866 145.538 85.2464 145.15C84.4471 144.901 83.6625 144.607 82.8964 144.27C82.3154 144.031 81.7675 143.719 81.2664 143.34C80.6141 142.893 80.0595 142.318 79.6364 141.65C79.3464 141.152 79.134 140.612 79.0064 140.05C78.8518 139.241 78.7515 138.422 78.7064 137.6C78.6264 136.33 78.5964 135.06 78.6364 133.79C78.8264 128.27 78.9164 122.74 79.0264 117.22C79.0964 113.8 79.1664 110.38 79.1964 106.96C79.1054 106.858 79.025 106.748 78.9564 106.63C78.7775 106.327 78.6841 105.982 78.6864 105.63C78.6114 104.338 78.6114 103.042 78.6864 101.75C78.6551 100.235 78.9626 98.7313 79.5864 97.3499C80.0317 96.4475 80.7256 95.6912 81.5864 95.1699C82.2222 94.8342 82.8929 94.5693 83.5864 94.3799C84.1764 94.2099 84.7664 93.9999 85.3764 93.8699C85.9864 93.7399 86.5464 93.5999 87.1364 93.5099C87.7264 93.4199 88.3164 93.3199 88.9064 93.2199C89.6764 93.0999 90.4464 93.0199 91.2264 92.9499C92.4864 92.9199 93.8764 92.9199 95.2364 92.9199ZM87.8164 97.5999L86.2964 97.8199L86.6264 97.7699C86.0364 97.8799 85.4564 98.0199 84.8764 98.1799C84.4764 98.2899 84.0764 98.3899 83.6864 98.5299L83.3264 98.7199L83.2264 98.8299C83.1064 99.0099 82.9964 99.1799 82.8864 99.3699C82.7764 99.5599 82.7964 99.7299 82.7564 99.9199C82.6764 100.76 82.6764 101.62 82.6664 102.47C82.6564 103.32 82.6664 103.89 82.6664 104.6V105.22C82.7264 110.68 82.8464 116.15 82.9664 121.61C83.0264 124.44 83.0764 127.26 83.1464 130.08C83.2064 132.54 83.2764 135 83.5664 137.44C83.6344 137.995 83.7481 138.544 83.9064 139.08V139.17L84.1664 139.42C84.5304 139.661 84.9114 139.875 85.3064 140.06C86.3359 140.455 87.3877 140.789 88.4564 141.06C89.0564 141.21 89.6564 141.36 90.2664 141.47C90.8764 141.58 91.6764 141.71 92.3864 141.81C95.0436 142.09 97.7145 142.221 100.386 142.2C101.686 142.2 102.976 142.2 104.266 142.2C105.556 142.2 106.636 142.05 107.816 141.91C108.975 141.689 110.117 141.391 111.236 141.02C111.976 140.8 112.696 140.53 113.416 140.24L113.746 140.09C114.259 139.858 114.75 139.584 115.216 139.27L115.606 138.9C115.716 138.73 115.816 138.55 115.916 138.37C116.062 137.929 116.172 137.478 116.246 137.02C116.375 135.774 116.438 134.522 116.436 133.27C116.436 131.81 116.436 130.34 116.436 128.88C116.436 127.42 116.376 126.15 116.306 124.79C116.166 122.28 116.046 119.79 115.736 117.29C115.496 115.55 115.216 113.82 114.986 112.09C114.756 110.36 114.426 108.38 113.986 106.53C113.786 105.59 113.586 104.64 113.356 103.7C113.126 102.76 112.966 102.09 112.696 101.31C112.596 101.13 112.496 100.95 112.386 100.78C112.25 100.62 112.103 100.47 111.946 100.33C111.789 100.227 111.625 100.133 111.456 100.05C110.238 99.6072 108.996 99.2332 107.736 98.9299C107.056 98.7599 106.376 98.5799 105.736 98.3899C105.187 98.2366 104.63 98.1164 104.066 98.0299C103.546 97.9699 103.066 97.9299 102.506 97.8899C101.946 97.8499 101.356 97.8899 100.776 97.8099L98.9264 97.6699C97.5664 97.5799 96.1964 97.4999 94.8264 97.4399C93.4564 97.3799 92.1964 97.3099 90.8864 97.3599C89.8764 97.3499 88.8464 97.4699 87.8164 97.5999Z" fill="#99DDC6"/>
<path d="M105.376 35.3799H106.376C107.716 35.3799 109.056 35.4699 110.376 35.5499C111.696 35.6299 113.096 35.7199 114.456 35.7799C115.816 35.8399 117.026 35.9899 118.316 36.0699C119.606 36.1499 120.956 36.2799 122.316 36.3699C123.779 36.4195 125.229 36.6479 126.636 37.0499C127.375 37.3013 128.091 37.6158 128.776 37.9899C129.561 38.3874 130.261 38.9343 130.836 39.5999C131.32 40.1749 131.726 40.8102 132.046 41.4899C132.356 42.2199 132.636 42.9499 132.876 43.7099C133.274 44.9187 133.566 46.1601 133.746 47.4199C133.961 48.9309 134.082 50.4538 134.106 51.9799C134.105 53.23 134.028 54.479 133.876 55.7199C133.726 57.2199 133.616 58.7199 133.346 60.2099C133.128 61.5172 132.794 62.8023 132.346 64.0499C132.08 64.7765 131.745 65.4763 131.346 66.1399C131.154 66.4271 130.947 66.7042 130.726 66.9699C130.6 67.1531 130.456 67.3239 130.296 67.4799C129.873 67.8658 129.407 68.2014 128.906 68.4799C127.458 69.2018 125.873 69.6107 124.256 69.6799C122.926 69.8299 121.596 69.9399 120.256 70.0199C118.916 70.0999 117.586 70.0999 116.256 70.1099C114.926 70.1199 113.606 70.1099 112.256 70.1099C110.906 70.1099 109.446 70.1099 108.036 70.0299C106.626 69.9499 105.486 69.8499 104.216 69.7599C102.946 69.6699 101.566 69.5399 100.216 69.3799C99.3064 69.2699 98.3964 69.1599 97.4964 68.9799C96.8212 68.8493 96.1535 68.6824 95.4964 68.4799C93.7639 68.0808 92.1859 67.184 90.9564 65.8999C90.6089 65.4994 90.2945 65.0713 90.0164 64.6199C89.742 64.1485 89.511 63.6531 89.3264 63.1399C89.0419 62.2943 88.8573 61.4183 88.7764 60.5299C88.6514 59.2763 88.6514 58.0134 88.7764 56.7599C88.8764 55.3599 89.0564 53.9599 89.2464 52.5699L89.6364 49.6699C89.8264 48.0499 90.0064 46.4399 90.2764 44.8399C90.3895 44.2008 90.5431 43.5695 90.7364 42.9499C90.9172 42.3571 91.1343 41.776 91.3864 41.2099C91.6691 40.6384 92.0218 40.1043 92.4364 39.6199C92.9398 38.9845 93.5327 38.4254 94.1964 37.9599L94.4864 37.9199L94.6764 37.7999C95.2355 37.4721 95.8209 37.1911 96.4264 36.9599C97.9005 36.296 99.4996 35.9551 101.116 35.9599C101.404 35.8011 101.728 35.7185 102.056 35.7199H102.346C103.026 35.6299 103.696 35.5499 104.346 35.5099C104.716 35.3899 105.046 35.3799 105.376 35.3799ZM101.756 40.8499C101.561 40.8726 101.368 40.906 101.176 40.9499C100.734 41.048 100.3 41.1784 99.8764 41.3399C99.2164 41.6199 98.5808 41.9544 97.9764 42.3399L97.7764 42.4699C97.6387 42.5991 97.5085 42.736 97.3864 42.8799C97.2041 43.145 97.0404 43.4223 96.8964 43.7099C96.6306 44.5498 96.43 45.4091 96.2964 46.2799C95.9964 48.6999 95.8064 51.1399 95.5064 53.5599C95.3464 54.9099 95.2264 56.2599 95.1564 57.6199C95.0865 58.6754 95.0865 59.7344 95.1564 60.7899C95.2264 61.0799 95.2964 61.3699 95.3864 61.6599C95.4867 61.8488 95.5969 62.0324 95.7164 62.2099L95.8564 62.3599C96.1429 62.5409 96.4401 62.7045 96.7464 62.8499C97.5409 63.1601 98.3562 63.4141 99.1864 63.6099C100.076 63.8199 100.996 63.9399 101.906 64.0799C103.006 64.2199 104.106 64.3299 105.206 64.4699C106.576 64.6499 107.936 64.7599 109.316 64.8299C112.026 64.9799 114.746 65.0099 117.466 65.0499C119.941 65.0985 122.417 64.9815 124.876 64.6999C125.335 64.6335 125.787 64.5264 126.226 64.3799L126.646 64.1399L126.836 63.9399C127.111 63.5199 127.352 63.0785 127.556 62.6199C127.946 61.3884 128.237 60.1277 128.426 58.8499C128.526 58.0299 128.596 57.2099 128.656 56.3899C128.716 55.5699 128.836 54.5999 128.906 53.6999C128.976 52.7999 128.986 51.8399 128.976 50.8999C128.966 49.9599 128.926 49.0899 128.826 48.1899C128.718 47.3112 128.557 46.4397 128.346 45.5799C128.139 44.7005 127.885 43.8326 127.586 42.9799C127.479 42.7449 127.355 42.5177 127.216 42.2999L127.126 42.2099C126.849 42.031 126.562 41.8675 126.266 41.7199C125.673 41.4985 125.06 41.3312 124.436 41.2199C123.436 41.1299 122.436 41.1099 121.516 41.0399C120.396 40.9499 119.276 40.9099 118.156 40.8199C116.846 40.7299 115.536 40.6199 114.226 40.5599C112.916 40.4999 111.716 40.4399 110.456 40.3599H109.836C107.126 40.5099 104.426 40.5599 101.756 40.8499Z" fill="#4D4962"/>
<path d="M61.9963 80.08C61.9963 80.33 61.9963 80.5699 61.9963 80.8199C61.9963 81.8199 61.9363 82.8199 61.8763 83.8199C61.8163 84.8199 61.7463 85.88 61.6963 86.91C61.6463 87.94 61.5463 88.85 61.4863 89.83C61.4263 90.81 61.3263 91.83 61.2463 92.83C61.2118 93.9401 61.0405 95.0417 60.7363 96.11C60.5494 96.6672 60.3117 97.2061 60.0263 97.72C59.7305 98.3207 59.3154 98.8549 58.8063 99.2899C58.3741 99.6554 57.8927 99.9583 57.3763 100.19C56.828 100.433 56.2672 100.646 55.6963 100.83C54.7802 101.13 53.8401 101.351 52.8863 101.49C51.7428 101.65 50.5907 101.74 49.4363 101.76C48.487 101.755 47.5387 101.695 46.5963 101.58C45.4663 101.47 44.3263 101.39 43.2063 101.18C42.2145 101.014 41.2403 100.756 40.2963 100.41C39.7429 100.201 39.2105 99.9396 38.7063 99.63C38.4863 99.49 38.2863 99.32 38.0863 99.17C37.9493 99.0649 37.8191 98.9513 37.6963 98.83C37.3947 98.5129 37.1328 98.1603 36.9163 97.78C36.3667 96.6839 36.0533 95.4847 35.9963 94.2599C35.8863 93.2599 35.8063 92.2599 35.7463 91.2599C35.6863 90.2599 35.6863 89.2599 35.6763 88.2599C35.6663 87.2599 35.6763 86.2599 35.6763 85.2599C35.6763 84.2599 35.6763 83.13 35.7263 82.06C35.7763 80.99 35.8663 80.14 35.9363 79.17C36.0063 78.2 36.0963 77.17 36.2263 76.17C36.3063 75.48 36.3863 74.79 36.5263 74.11C36.6271 73.6038 36.7539 73.1031 36.9063 72.61C37.2151 71.2895 37.9116 70.0915 38.9063 69.17C39.2195 68.9062 39.554 68.6687 39.9063 68.4599C40.2638 68.2543 40.6385 68.0803 41.0263 67.94C41.6732 67.7183 42.3449 67.5772 43.0263 67.52C43.9739 67.425 44.9287 67.425 45.8763 67.52C46.9463 67.59 47.9963 67.73 49.0563 67.88L51.2463 68.17C52.4663 68.32 53.6963 68.4499 54.9063 68.6499C55.389 68.7406 55.8663 68.8575 56.3363 69C56.7861 69.1396 57.2269 69.3066 57.6563 69.5C58.0882 69.7112 58.4915 69.9767 58.8563 70.2899C59.336 70.6726 59.7601 71.1203 60.1163 71.6199L60.2363 71.81L60.3263 71.95C60.5715 72.3738 60.7854 72.815 60.9663 73.27C61.4673 74.3899 61.7263 75.603 61.7263 76.83C61.8496 77.05 61.9149 77.2977 61.9163 77.55V77.77C61.9863 78.28 62.0463 78.77 62.0763 79.31C61.9963 79.58 61.9963 79.83 61.9963 80.08ZM57.8663 77.34C57.8663 77.19 57.8663 77.0399 57.7863 76.8999C57.7082 76.5604 57.608 76.2264 57.4863 75.8999C57.2642 75.4004 57.0034 74.9189 56.7063 74.4599L56.5963 74.31C56.504 74.2026 56.4037 74.1023 56.2963 74.0099C56.0956 73.8714 55.8851 73.7478 55.6663 73.64C55.0116 73.4385 54.3432 73.2848 53.6663 73.1799C51.8363 72.9599 49.9963 72.81 48.1563 72.59C47.1563 72.47 46.1563 72.3799 45.0863 72.3199C44.2871 72.27 43.4855 72.27 42.6863 72.3199C42.4625 72.3648 42.2419 72.425 42.0263 72.5C41.8798 72.5679 41.7393 72.6482 41.6063 72.74L41.4963 72.8499C41.3579 73.0664 41.231 73.2901 41.1163 73.52C40.8844 74.1229 40.6939 74.741 40.5463 75.3699C40.3863 76.0499 40.2963 76.7399 40.1863 77.3699C40.0863 78.2099 39.9963 79.05 39.8863 79.88C39.7563 80.88 39.6763 81.95 39.6163 82.99C39.5063 85.04 39.4863 87.1 39.4563 89.16C39.4179 91.0337 39.5048 92.9078 39.7163 94.77C39.7717 95.1097 39.8553 95.4442 39.9663 95.77C40.0188 95.8775 40.0789 95.9811 40.1463 96.08L40.2963 96.2299C40.6153 96.4353 40.9496 96.6159 41.2963 96.77C42.2304 97.0663 43.1868 97.287 44.1563 97.4299C44.7763 97.4999 45.3963 97.5599 46.0163 97.5999C46.6363 97.6399 47.3663 97.7399 48.0163 97.7899C48.6663 97.8399 49.4263 97.8499 50.1363 97.7899C50.8244 97.7882 51.512 97.7515 52.1963 97.6799C52.8698 97.6018 53.5378 97.4815 54.1963 97.3199C54.8729 97.1627 55.5406 96.9691 56.1963 96.74C56.3747 96.66 56.5483 96.5698 56.7163 96.47L56.7763 96.3999C56.913 96.1912 57.0366 95.9741 57.1463 95.75C57.3172 95.2964 57.4444 94.8276 57.5263 94.3499C57.5963 93.6199 57.6063 92.8799 57.6663 92.1499C57.7263 91.4199 57.7663 90.4499 57.8263 89.5999C57.8863 88.7499 57.9863 87.5999 58.0263 86.5999C58.0663 85.5999 58.1163 84.69 58.1763 83.74C58.1763 83.58 58.1763 83.43 58.1763 83.27C58.1163 81.4 58.0763 79.36 57.8663 77.34Z" fill="#4D4962"/>
</svg>
